<svg width="736" height="697" viewBox="0 0 736 697" fill="none" xmlns="http://www.w3.org/2000/svg">
<rect width="675.975" height="599.804" rx="16.2386" transform="matrix(0.99731 -0.0733038 0.0536381 0.99856 14.8359 73.8062)" fill="#15171B"/>
<rect width="677.551" height="598.777" rx="16.2386" transform="matrix(0.988629 -0.150378 0.110481 0.993878 0 101.889)" fill="#71A3F5" stroke="#15171B" stroke-width="1.91043"/>
<rect width="675.515" height="600.103" rx="16.2386" transform="matrix(0.999842 -0.0177968 0.013007 0.999915 26.3936 54.4858)" fill="#FDFDFF" stroke="#15171B" stroke-width="1.91043"/>
<circle cx="558.296" cy="496.01" r="114.536" transform="rotate(60 558.296 496.01)" fill="#71A3F5" stroke="#15171B" stroke-width="1.57981"/>
<path d="M529.815 598.247C529.812 598.208 529.809 598.168 529.806 598.128C529.698 596.704 529.526 594.642 529.272 592.086C528.763 586.973 527.924 579.878 526.604 571.948C523.968 556.116 519.395 536.849 511.634 523.406C503.872 509.963 489.473 496.37 477.08 486.17C470.873 481.062 465.148 476.788 460.974 473.791C458.887 472.293 457.188 471.113 456.009 470.307C455.976 470.284 455.943 470.262 455.91 470.24C455.953 470.234 455.996 470.228 456.04 470.222C457.462 470.027 459.521 469.73 462.077 469.326C467.188 468.518 474.284 467.277 482.228 465.548C498.092 462.094 517.422 456.673 531.044 448.809C544.665 440.944 559.025 426.914 569.948 414.903C575.418 408.888 580.04 403.363 583.296 399.341C584.924 397.329 586.21 395.694 587.09 394.56C587.146 394.489 587.199 394.42 587.251 394.352C587.261 394.437 587.272 394.524 587.283 394.614C587.454 396.038 587.716 398.099 588.075 400.652C588.795 405.757 589.908 412.831 591.482 420.704C594.626 436.423 599.628 455.434 607.062 468.31C614.497 481.187 628.459 495.024 640.5 505.606C646.532 510.907 652.101 515.407 656.163 518.583C658.194 520.171 659.848 521.428 660.995 522.288C661.068 522.343 661.138 522.395 661.206 522.446C661.122 522.458 661.035 522.47 660.946 522.482C659.524 522.677 657.464 522.973 654.909 523.378C649.798 524.186 642.701 525.427 634.758 527.156C618.894 530.61 599.564 536.031 585.942 543.895C572.32 551.76 557.961 565.79 547.038 577.801C541.568 583.816 536.945 589.341 533.69 593.363C532.062 595.374 530.775 597.01 529.895 598.144C529.868 598.179 529.842 598.213 529.815 598.247Z" fill="#FDFDFF" stroke="#15171B" stroke-width="1.57981"/>
<path d="M65.9418 131.767L65.239 92.2935L75.7094 92.1071C85.3398 91.9357 90.9169 93.7407 91.0554 101.523C91.1571 107.235 87.3916 109.654 83.3092 110.007L83.3331 111.35C89.3822 111.355 94.1853 113.734 94.3109 120.789C94.4524 128.739 88.5062 131.366 78.9318 131.536L65.9418 131.767ZM70.1323 109.177L76.1794 109.069C82.6184 108.955 86.5768 107.932 86.4771 102.333C86.3684 96.23 82.3861 95.9089 75.9471 96.0235L69.9001 96.1312L70.1323 109.177ZM70.4633 127.766L79.03 127.614C85.7489 127.494 89.8163 126.301 89.7057 120.086C89.603 114.319 85.4877 112.824 78.7688 112.944L70.2021 113.096L70.4633 127.766ZM100.882 131.145L100.179 91.6715L113.281 91.4382C122.687 91.2707 128.717 93.3477 128.875 102.194C128.98 108.129 125.948 110.816 121.705 111.619L121.729 112.963L126.432 112.879C128.672 112.84 129.584 113.719 129.621 115.791L129.885 130.629L125.294 130.711L125.012 114.865L105.191 115.218L105.473 131.063L100.882 131.145ZM105.121 111.299L113.632 111.147C120.351 111.027 124.426 110.283 124.297 103.06C124.168 95.7811 120.069 95.2379 113.351 95.3576L104.84 95.5091L105.121 111.299ZM166.061 129.985L160.803 114.62L144.958 114.902L140.305 130.443L135.714 130.525L147.777 90.824L157.184 90.6565L170.597 129.904L166.061 129.985ZM146.176 110.96L159.501 110.722L153.119 92.0171L151.832 92.04L146.176 110.96ZM197.647 93.8567L188.857 94.0132L189.42 125.648L198.211 125.492L198.28 129.411L176.052 129.807L175.982 125.887L184.829 125.73L184.265 94.095L175.419 94.2525L175.349 90.3331L197.578 89.9373L197.647 93.8567ZM205.263 129.287L204.561 89.813L213.799 89.6485L234.188 127.484L235.476 127.461L234.689 124.17L234.068 89.2877L238.603 89.2069L239.306 128.681L230.068 128.845L209.735 91.0091L208.447 91.032L209.234 94.3225L209.855 129.205L205.263 129.287ZM266.121 128.203L265.418 88.7295L274.657 88.565L286.535 126.552L287.823 126.529L298.397 88.1423L307.58 87.9788L308.282 127.453L303.691 127.534L303.07 92.6519L303.795 89.3344L302.451 89.3584L291.821 127.746L282.582 127.91L270.592 89.9256L269.305 89.9485L270.091 93.239L270.712 128.121L266.121 128.203ZM344.041 126.816L338.783 111.451L322.937 111.733L318.285 127.274L313.694 127.356L325.757 87.6552L335.164 87.4877L348.576 126.735L344.041 126.816ZM324.155 107.791L337.481 107.554L331.099 88.8483L329.811 88.8712L324.155 107.791ZM364.428 86.9667C374.394 86.7893 380.767 89.2522 380.951 99.5546C381.135 109.913 374.855 112.657 364.889 112.835L358.394 112.95L358.636 126.556L354.045 126.638L353.342 87.1641L364.428 86.9667ZM364.875 108.914C371.594 108.795 376.499 107.475 376.359 99.6363C376.222 91.9095 371.273 90.7655 364.554 90.8851L358.003 91.0017L358.324 109.031L364.875 108.914ZM418.412 115.522C418.517 121.401 415.072 126.111 403.426 126.319C389.652 126.564 385.456 120.534 385.292 111.295L389.883 111.213C390.05 120.564 395.07 122.547 403.356 122.399C410.075 122.28 413.91 120.587 413.825 115.828C413.718 109.837 406.753 108.729 400.45 106.993C392.625 104.78 386.932 102.753 386.807 95.7537C386.7 89.7067 390.889 85.9355 400.632 85.762C412.278 85.5547 416.38 92.5948 416.494 99.0338L411.903 99.1155C411.784 92.3966 406.748 89.5737 400.701 89.6814C395.27 89.7781 391.319 91.1927 391.397 95.56C391.47 99.7033 394.969 101.153 401.5 103.053C409.269 105.323 418.266 107.292 418.412 115.522ZM88.1701 162.817L79.3795 162.973L79.9427 194.608L88.7333 194.451L88.8031 198.371L66.5746 198.767L66.5048 194.847L75.3514 194.69L74.7882 163.055L65.9416 163.212L65.8718 159.293L88.1003 158.897L88.1701 162.817ZM95.7862 198.247L95.0834 158.773L104.322 158.608L124.711 196.443L125.999 196.42L125.212 193.13L124.591 158.247L129.126 158.167L129.829 197.64L120.59 197.805L100.258 159.969L98.9697 159.992L99.7564 163.282L100.377 198.165L95.7862 198.247ZM166.548 157.5L166.618 161.42L152.956 161.663L153.589 197.217L149.053 197.298L148.42 161.744L134.647 161.989L134.577 158.07L166.548 157.5ZM167.597 177.197C167.393 165.719 174.067 156.806 185.713 156.599C197.248 156.394 204.235 165.063 204.439 176.541C204.645 188.075 197.97 196.987 186.436 197.193C174.79 197.4 167.803 188.731 167.597 177.197ZM172.189 177.115C172.357 186.578 177.016 193.44 186.366 193.273C195.661 193.108 200.017 186.085 199.848 176.623C199.681 167.216 195.078 160.353 185.783 160.518C176.433 160.685 172.021 167.709 172.189 177.115ZM231.007 195.839L230.304 156.365L240.775 156.179C250.405 156.007 255.982 157.812 256.121 165.595C256.222 171.306 252.457 173.726 248.374 174.078L248.398 175.422C254.447 175.427 259.25 177.805 259.376 184.86C259.518 192.811 253.571 195.437 243.997 195.608L231.007 195.839ZM235.198 173.249L241.245 173.141C247.684 173.027 251.642 172.004 251.542 166.405C251.434 160.302 247.451 159.981 241.012 160.095L234.965 160.203L235.198 173.249ZM235.528 191.838L244.095 191.685C250.814 191.566 254.881 190.373 254.771 184.158C254.668 178.391 250.553 176.896 243.834 177.016L235.267 177.168L235.528 191.838ZM265.55 180.55L265.108 155.746L269.7 155.664L270.128 179.74C270.271 187.747 273.142 191.728 281.373 191.582C289.604 191.435 292.387 187.353 292.245 179.346L291.816 155.27L296.407 155.188L296.849 179.992C297.024 189.847 292.249 195.309 281.443 195.501C270.692 195.693 265.725 190.404 265.55 180.55ZM324.109 158.616L315.319 158.772L315.882 190.407L324.672 190.251L324.742 194.17L302.514 194.566L302.444 190.647L311.291 190.489L310.727 158.854L301.881 159.012L301.811 155.092L324.039 154.696L324.109 158.616ZM335.151 194.545C332.968 194.64 331.713 193.374 331.676 191.246L331.023 154.572L335.614 154.49L336.257 190.605L356.124 189.691L356.194 193.61L335.151 194.545ZM373.966 153.808C383.541 153.637 393.78 156.199 394.082 173.164C394.385 190.186 384.243 193.111 374.669 193.281L362.127 193.505L361.424 154.031L373.966 153.808ZM374.599 189.362C381.598 189.237 389.751 187.86 389.491 173.246C389.231 158.689 381.035 157.602 374.036 157.727L366.085 157.868L366.648 189.503L374.599 189.362ZM418.758 156.931L409.968 157.087L410.531 188.722L419.322 188.566L419.391 192.485L397.163 192.881L397.093 188.961L405.94 188.804L405.376 157.169L396.53 157.326L396.46 153.407L418.689 153.011L418.758 156.931ZM426.374 192.361L425.672 152.887L434.91 152.722L455.299 190.557L456.587 190.535L455.8 187.244L455.179 152.362L459.714 152.281L460.417 191.755L451.179 191.919L430.846 154.083L429.558 154.106L430.345 157.396L430.966 192.279L426.374 192.361ZM466.472 171.876C466.265 160.285 473.334 151.478 484.756 151.275C494.666 151.098 500.261 157.048 501.591 165.649L496.999 165.731C495.988 159.252 492.609 155.056 484.826 155.194C475.587 155.359 470.892 162.163 471.063 171.794C471.236 181.48 474.883 188.136 484.121 187.972C491.904 187.833 495.519 183.232 495.182 173.773L481.688 174.013L481.622 170.318L501.107 169.971C503.403 169.93 504.485 170.919 504.522 172.99L504.842 190.964L500.25 191.045L499.988 176.32L500.626 171.268L499.339 171.29C499.528 185.065 494.325 191.711 484.135 191.892C472.545 192.099 466.679 183.522 466.472 171.876ZM96.4348 265.246L91.1764 249.881L75.3309 250.163L70.6788 265.704L66.0876 265.786L78.1507 226.085L87.5573 225.917L100.97 265.165L96.4348 265.246ZM76.5489 246.221L89.8748 245.983L83.4928 227.278L82.205 227.301L76.5489 246.221ZM155.164 224.714L155.234 228.633L141.572 228.876L142.205 264.431L137.67 264.511L137.037 228.957L123.263 229.202L123.193 225.283L155.164 224.714ZM161.336 264.09L160.633 224.616L185.101 224.181L185.171 228.1L165.294 228.454L165.54 242.284L182.618 241.98L182.687 245.899L165.61 246.203L165.857 260.089L185.734 259.735L185.804 263.654L161.336 264.09ZM189.185 243.823C188.981 232.345 195.711 223.432 207.301 223.225C217.38 223.046 224.094 228.975 225.444 238.697L220.852 238.779C219.822 231.236 215.098 227.007 207.371 227.145C198.189 227.308 193.607 234.223 193.776 243.741C193.947 253.316 198.772 260.063 207.954 259.9C215.681 259.762 220.251 255.312 221.012 247.737L225.603 247.655C224.602 257.475 218.103 263.64 208.024 263.819C196.434 264.025 189.391 255.357 189.185 243.823ZM259.599 222.854L264.134 222.774L264.837 262.247L260.302 262.328L259.99 244.803L236.698 245.218L237.01 262.743L232.418 262.825L231.716 223.351L236.307 223.269L236.628 241.298L259.92 240.883L259.599 222.854ZM272.389 262.113L271.686 222.639L280.924 222.475L301.313 260.31L302.601 260.287L301.814 256.996L301.193 222.114L305.728 222.033L306.431 261.507L297.193 261.671L276.86 223.835L275.572 223.858L276.359 227.149L276.98 262.031L272.389 262.113ZM312.486 241.628C312.282 230.15 318.956 221.237 330.602 221.03C342.136 220.825 349.124 229.494 349.328 240.972C349.533 252.506 342.859 261.418 331.325 261.624C319.679 261.831 312.691 253.162 312.486 241.628ZM317.077 241.546C317.246 251.009 321.905 257.871 331.255 257.704C340.55 257.539 344.905 250.516 344.737 241.054C344.569 231.647 339.966 224.784 330.672 224.949C321.321 225.116 316.91 232.14 317.077 241.546ZM359.637 261.12C357.454 261.214 356.199 259.949 356.161 257.821L355.508 221.147L360.1 221.065L360.743 257.179L380.61 256.265L380.679 260.185L359.637 261.12ZM381.217 240.404C381.013 228.926 387.687 220.014 399.333 219.806C410.868 219.601 417.855 228.27 418.059 239.748C418.265 251.282 411.59 260.195 400.056 260.4C388.41 260.607 381.423 251.938 381.217 240.404ZM385.809 240.322C385.977 249.785 390.636 256.647 399.986 256.481C409.281 256.315 413.637 249.292 413.468 239.83C413.301 230.423 408.698 223.56 399.403 223.726C390.053 223.892 385.641 230.916 385.809 240.322ZM423.867 239.645C423.66 228.055 430.729 219.247 442.151 219.044C452.061 218.868 457.656 224.817 458.985 233.419L454.394 233.5C453.383 227.021 450.003 222.825 442.221 222.963C432.982 223.128 428.287 229.933 428.458 239.563C428.63 249.25 432.278 255.906 441.516 255.741C449.299 255.603 452.914 251.002 452.577 241.542L439.083 241.782L439.017 238.087L458.502 237.74C460.798 237.699 461.88 238.688 461.917 240.76L462.237 258.733L457.645 258.815L457.383 244.089L458.021 239.037L456.734 239.06C456.923 252.834 451.72 259.48 441.53 259.662C429.94 259.868 424.074 251.291 423.867 239.645ZM488.223 218.784L493.15 218.696L479.257 243.699L479.519 258.425L474.984 258.506L474.722 243.78L459.947 219.287L464.874 219.2L476.248 238.264L476.304 241.456L477.592 241.433L477.535 238.241L488.223 218.784Z" fill="#15171B"/>
<path d="M103.63 540.214C124.823 539.837 142.31 556.829 142.689 578.166C143.069 599.503 126.197 617.105 105.006 617.483C83.8159 617.86 66.327 600.869 65.9471 579.532C65.5673 558.196 82.4386 540.592 103.63 540.214ZM164.948 541.386C175.544 541.198 184.424 557.327 184.781 577.416L184.783 577.416C185.14 597.501 176.84 613.941 166.245 614.13C155.649 614.318 146.769 598.184 146.411 578.1C146.054 558.016 154.352 541.575 164.948 541.386L164.948 541.386ZM194.672 544.647C198.398 544.581 201.679 559.115 202 577.11C202.32 595.1 199.559 609.748 195.832 609.814C192.105 609.88 188.826 595.345 188.506 577.351C188.185 559.356 190.946 544.713 194.672 544.647Z" fill="#15171B"/>
</svg>
