<svg width="40" height="40" viewBox="0 0 40 40" fill="none" xmlns="http://www.w3.org/2000/svg">
<path d="M37.825 0.0335693H2.70639C2.1308 0.0335693 1.57879 0.262221 1.17179 0.669222C0.764784 1.07622 0.536133 1.62824 0.536133 2.20382V37.3225C0.536133 37.6075 0.592268 37.8897 0.701334 38.153C0.810399 38.4163 0.970259 38.6555 1.17179 38.8571C1.37331 39.0586 1.61256 39.2185 1.87587 39.3275C2.13917 39.4366 2.42138 39.4927 2.70639 39.4927H21.6073V24.2023H16.4776V18.2834H21.6073V13.8443C21.5011 12.8021 21.6241 11.7492 21.9678 10.7596C22.3115 9.77001 22.8676 8.86758 23.597 8.11561C24.3264 7.36365 25.2115 6.78038 26.1902 6.40669C27.1688 6.03301 28.2174 5.87797 29.2624 5.95244C30.798 5.94299 32.3329 6.02204 33.8594 6.1892V11.5162H30.7224C28.2365 11.5162 27.7629 12.7 27.7629 14.4164V18.2242H33.6818L32.9124 24.1431H27.7629V39.4927H37.825C38.11 39.4927 38.3922 39.4366 38.6556 39.3275C38.9189 39.2185 39.1581 39.0586 39.3596 38.8571C39.5612 38.6555 39.721 38.4163 39.8301 38.153C39.9391 37.8897 39.9953 37.6075 39.9953 37.3225V2.20382C39.9953 1.91882 39.9391 1.63661 39.8301 1.3733C39.721 1.11 39.5612 0.870749 39.3596 0.669222C39.1581 0.467695 38.9189 0.307836 38.6556 0.19877C38.3922 0.0897048 38.11 0.0335693 37.825 0.0335693Z" fill="#FDFCFA"/>
</svg>
