<svg width="138" height="78" viewBox="0 0 138 78" fill="none" xmlns="http://www.w3.org/2000/svg">
<path d="M38.6304 0.214292C59.8233 -0.163031 77.3095 16.8295 77.6894 38.1659C78.0693 59.5027 61.1974 77.1054 40.0061 77.4827C18.8159 77.86 1.32703 60.8691 0.947139 39.5322C0.567271 18.1964 17.4386 0.591596 38.6304 0.214292ZM99.9476 1.38624C110.544 1.19759 119.424 17.3274 119.781 37.4164L119.783 37.4164C120.14 57.5007 111.84 73.9411 101.245 74.1298C90.6492 74.3184 81.7688 58.1838 81.4112 38.0996C81.0536 18.0159 89.3519 1.57489 99.9481 1.38623L99.9476 1.38624ZM129.672 4.64698C133.398 4.58064 136.679 19.1148 137 37.1104C137.32 55.1002 134.559 69.7478 130.832 69.8141C127.105 69.8805 123.826 55.3447 123.506 37.3507C123.185 19.3561 125.946 4.71331 129.672 4.64698Z" fill="#15171B"/>
</svg>
