<svg width="50" height="40" viewBox="0 0 50 40" fill="none" xmlns="http://www.w3.org/2000/svg">
<path d="M47.4485 6.19402H49.3708V0.523193H31.1916L25.1502 22.8009H24.9849L18.9985 0.523193H0.764648V6.19388H2.63202C3.06372 6.26414 3.46424 6.4628 3.78139 6.76397C4.09855 7.06515 4.31764 7.45487 4.41011 7.88236V31.773C4.31192 32.1852 4.08807 32.5567 3.76952 32.836C3.45097 33.1154 3.05347 33.2888 2.63202 33.3323H0.764648V39.0032H15.3465V33.3323H11.701V8.21922H11.9137L20.3167 39.0032H26.9077L35.4206 8.21922H35.5993V33.3323H31.9537V39.0032H49.3708V33.3323H47.4485C47.0367 33.2787 46.6511 33.1007 46.3431 32.8221C46.0352 32.5435 45.8197 32.1775 45.7253 31.773V7.8825C45.8146 7.46277 46.0257 7.0787 46.3323 6.77837C46.6388 6.47803 47.0271 6.27477 47.4485 6.19402Z" fill="#FDFCFA"/>
</svg>
