<svg width="41" height="40" viewBox="0 0 41 40" fill="none" xmlns="http://www.w3.org/2000/svg">
<path d="M20.3321 0.0335694C16.43 0.0335694 12.6155 1.19069 9.37096 3.3586C6.12645 5.52652 3.59766 8.60785 2.10437 12.213C0.611088 15.8181 0.220376 19.785 0.981646 23.6122C1.74292 27.4394 3.62198 30.9548 6.38121 33.7141C9.14044 36.4733 12.6559 38.3524 16.4831 39.1136C20.3102 39.8749 24.2772 39.4842 27.8823 37.9909C31.4874 36.4976 34.5687 33.9688 36.7367 30.7243C38.9046 27.4798 40.0617 23.6653 40.0617 19.7631C40.0619 17.1722 39.5517 14.6065 38.5603 12.2127C37.5689 9.81891 36.1156 7.64385 34.2835 5.81175C32.4514 3.97964 30.2764 2.52638 27.8826 1.53496C25.4888 0.543528 22.9231 0.0333543 20.3321 0.0335694V0.0335694ZM26.6052 29.9287C26.5313 30.1129 26.419 30.2791 26.2756 30.4163C26.1323 30.5534 25.9613 30.6584 25.7741 30.724C25.5868 30.7897 25.3878 30.8146 25.1901 30.797C24.9925 30.7795 24.801 30.7199 24.6283 30.6222L19.2723 26.4605L15.8348 29.6319C15.755 29.6908 15.6617 29.7287 15.5635 29.7422C15.4652 29.7556 15.3652 29.7441 15.2725 29.7087L15.9315 23.8126L15.9526 23.8293L15.966 23.7129C15.966 23.7129 25.6039 14.9382 25.9966 14.5643C26.3941 14.1914 26.2629 14.1105 26.2629 14.1105C26.2855 13.6557 25.5496 14.1105 25.5496 14.1105L12.7796 22.326L7.46155 20.5148C7.46155 20.5148 6.64475 20.2219 6.5678 19.5777C6.48691 18.9384 7.48817 18.5912 7.48817 18.5912L28.6324 10.1913C28.6324 10.1913 30.3705 9.4169 30.3705 10.6994L26.6052 29.9287Z" fill="#FDFCFA"/>
</svg>
