<svg width="49" height="40" viewBox="0 0 49 40" fill="none" xmlns="http://www.w3.org/2000/svg">
<path d="M48.4368 4.96534C46.6399 5.7449 44.7396 6.26023 42.795 6.49532C44.8466 5.26971 46.384 3.3416 47.122 1.06867C45.1941 2.21631 43.0837 3.02488 40.8826 3.45926C39.4113 1.86371 37.452 0.801633 35.312 0.43959C33.1721 0.0775467 30.9725 0.436021 29.0582 1.45879C27.1439 2.48156 25.6233 4.11077 24.7347 6.09091C23.8461 8.07105 23.6399 10.2901 24.1484 12.4001C20.2504 12.2029 16.4374 11.1879 12.9572 9.42107C9.47705 7.6542 6.40748 5.17497 3.94792 2.14444C3.08525 3.65091 2.63195 5.35697 2.6331 7.09296C2.63004 8.70514 3.02567 10.2931 3.78478 11.7153C4.54388 13.1376 5.6429 14.3501 6.98398 15.2449C5.42526 15.2025 3.89984 14.7842 2.53747 14.0257V14.1452C2.54916 16.4041 3.3407 18.5895 4.77821 20.332C6.21572 22.0744 8.21096 23.2669 10.4264 23.7076C9.5736 23.9671 8.68817 24.104 7.79678 24.114C7.17974 24.1068 6.56424 24.0508 5.95602 23.9466C6.58692 25.8897 7.80783 27.5879 9.44886 28.8047C11.0899 30.0215 13.0694 30.6966 15.112 30.7359C11.6629 33.4499 7.40444 34.9311 3.01559 34.9434C2.2165 34.946 1.41804 34.8981 0.625 34.7999C5.10599 37.6932 10.328 39.229 15.6618 39.2225C19.3426 39.2607 22.9941 38.5652 26.403 37.1764C29.812 35.7876 32.91 33.7334 35.5162 31.1339C38.1224 28.5344 40.1844 25.4417 41.582 22.0363C42.9795 18.631 43.6844 14.9813 43.6557 11.3004C43.6557 10.894 43.6557 10.4637 43.6557 10.0334C45.5315 8.63444 47.1495 6.91947 48.4368 4.96534V4.96534Z" fill="#FDFCFA"/>
</svg>
